<svg width="50" height="50" viewBox="0 0 50 50" fill="none" xmlns="http://www.w3.org/2000/svg">
<path d="M25 17.4523C20.8644 17.4523 17.5 20.8167 17.5 24.9523C17.5 29.0878 20.8644 32.4523 25 32.4523C29.1356 32.4523 32.5 29.0878 32.5 24.9523C32.5 20.8167 29.1356 17.4523 25 17.4523Z" fill="#5F606B"/>
<path d="M35.3989 0H14.6011C6.53722 0 0 6.53722 0 14.6011V35.3994C0 43.4628 6.53722 50 14.6011 50H35.3994C43.4628 50 50 43.4628 50 35.3989V14.6011C50 6.53722 43.4628 0 35.3989 0ZM25 38.155C17.8289 38.155 11.995 32.3211 11.995 25.1506C11.995 17.9794 17.8289 12.1456 25 12.1456C32.1706 12.1456 38.0044 17.9794 38.0044 25.1506C38.0044 32.3211 32.1706 38.155 25 38.155ZM38.29 12.1789C36.7561 12.1789 35.5122 10.935 35.5122 9.40111C35.5122 7.86722 36.7561 6.62333 38.29 6.62333C39.8239 6.62333 41.0678 7.86722 41.0678 9.40111C41.0678 10.935 39.8239 12.1789 38.29 12.1789Z" fill="#5F606B"/>
</svg>
