<svg width="27" height="32" viewBox="0 0 27 32" fill="none" xmlns="http://www.w3.org/2000/svg">
<path d="M21.6255 1L4.75015 1C2.67909 1 1.00016 2.67892 1.00014 4.74998L1 27.2499C0.999987 29.321 2.67891 30.9999 4.74999 30.9999L21.6251 31C23.6961 31 25.375 29.3211 25.3751 27.2501L25.3755 4.75007C25.3755 2.67898 23.6966 1 21.6255 1Z" fill="#5F606B"/>
<path d="M7.56309 8.5L18.8131 8.5M7.56309 14.125L18.8131 14.125M7.56309 19.75L13.1881 19.75M4.75015 1L21.6255 1C23.6966 1 25.3755 2.67898 25.3755 4.75007L25.3751 27.2501C25.375 29.3211 23.6961 31 21.6251 31L4.74999 30.9999C2.67891 30.9999 0.999987 29.321 1 27.2499L1.00014 4.74998C1.00016 2.67892 2.67909 1 4.75015 1Z" stroke="#0F0F1A" stroke-width="2" stroke-linecap="round" stroke-linejoin="round"/>
</svg>
