<svg width="32" height="29" viewBox="0 0 32 29" fill="none" xmlns="http://www.w3.org/2000/svg">
<path d="M6.55012 27.6667C3.96851 27.6667 1.78987 25.9605 1.10442 23.6262C0.81182 22.6297 1.17135 21.5918 1.72126 20.7081L11.1711 3.66837C13.3852 0.110539 18.6148 0.110544 20.8289 3.66838L30.2787 20.7081C30.8287 21.5918 31.1882 22.6297 30.8956 23.6262C30.2101 25.9605 28.0315 27.6667 25.4499 27.6667H6.55012Z" fill="#5F606B"/>
<path d="M16 15.8334V8.35745M16 21.3746V21.4403M25.4499 27.6667H6.55012C3.96851 27.6667 1.78987 25.9605 1.10442 23.6262C0.81182 22.6297 1.17135 21.5918 1.72126 20.7081L11.1711 3.66837C13.3852 0.110539 18.6148 0.110544 20.8289 3.66838L30.2787 20.7081C30.8287 21.5918 31.1882 22.6297 30.8956 23.6262C30.2101 25.9605 28.0315 27.6667 25.4499 27.6667Z" stroke="#0F0F1A" stroke-width="2" stroke-linecap="round" stroke-linejoin="round"/>
</svg>
