<svg width="50" height="50" viewBox="0 0 50 50" fill="none" xmlns="http://www.w3.org/2000/svg">
<path d="M14 12.8L32.2642 37.2H36.4L18.1358 12.8H14Z" fill="#5F606B"/>
<path d="M40.1939 0H9.80611C4.39 0 0 4.39 0 9.80611V40.1944C0 45.61 4.39 50 9.80611 50H40.1944C45.61 50 50 45.61 50 40.1939V9.80611C50 4.39 45.61 0 40.1939 0ZM31.1289 39.1689L22.8078 28.0428L12.5089 39.1689H9.86167L21.625 26.4611L9.93556 10.8311H18.945L26.6083 21.0778L36.0928 10.8311H38.74L27.7911 22.66L40.1383 39.1689H31.1289Z" fill="#5F606B"/>
</svg>
