<svg width="50" height="36" viewBox="0 0 50 36" fill="none" xmlns="http://www.w3.org/2000/svg">
<path d="M48.955 5.50395C48.38 3.33773 46.6856 1.63138 44.5344 1.05234C40.6356 -2.84809e-07 25 0 25 0C25 0 9.36444 -2.84809e-07 5.46556 1.05234C3.31444 1.63138 1.62 3.33773 1.045 5.50395C0 9.43024 0 17.623 0 17.623C0 17.623 0 25.8157 1.045 29.7419C1.62 31.9082 3.31444 33.6145 5.46556 34.1936C9.36444 35.2459 25 35.2459 25 35.2459C25 35.2459 40.6356 35.2459 44.5344 34.1936C46.6856 33.6145 48.38 31.9082 48.955 29.7419C50 25.8157 50 17.623 50 17.623C50 17.623 50 9.43024 48.955 5.50395ZM20 25.1756V10.0703L32.99 17.623L20 25.1756Z" fill="#5F606B"/>
</svg>
